<svg width="150" height="150" viewBox="0 0 150 150" fill="none" xmlns="http://www.w3.org/2000/svg">
<rect width="150" height="150" fill="#EEB58F"/>
<path d="M43.708 80C43.516 80 43.36 79.944 43.24 79.832C43.128 79.712 43.072 79.564 43.072 79.388V72.2H44.356V79.388C44.356 79.564 44.292 79.712 44.164 79.832C44.044 79.944 43.892 80 43.708 80ZM40.984 72.752C40.816 72.752 40.672 72.7 40.552 72.596C40.432 72.484 40.372 72.34 40.372 72.164C40.372 71.996 40.432 71.86 40.552 71.756C40.672 71.652 40.816 71.6 40.984 71.6H46.444C46.612 71.6 46.752 71.656 46.864 71.768C46.984 71.872 47.044 72.008 47.044 72.176C47.044 72.352 46.984 72.492 46.864 72.596C46.752 72.7 46.612 72.752 46.444 72.752H40.984ZM48.1548 80C47.9788 80 47.8348 79.944 47.7228 79.832C47.6108 79.712 47.5548 79.564 47.5548 79.388V74.3C47.5548 74.124 47.6108 73.98 47.7228 73.868C47.8348 73.748 47.9788 73.688 48.1548 73.688C48.3228 73.688 48.4628 73.748 48.5748 73.868C48.6948 73.98 48.7548 74.124 48.7548 74.3V75.644L48.6348 75.128C48.6988 74.904 48.7948 74.696 48.9228 74.504C49.0588 74.312 49.2188 74.144 49.4028 74C49.5868 73.856 49.7908 73.744 50.0148 73.664C50.2468 73.584 50.4868 73.544 50.7348 73.544C50.9428 73.544 51.1228 73.6 51.2748 73.712C51.4268 73.824 51.5028 73.964 51.5028 74.132C51.5028 74.348 51.4468 74.508 51.3348 74.612C51.2228 74.708 51.0988 74.756 50.9628 74.756C50.8428 74.756 50.7268 74.732 50.6148 74.684C50.5028 74.628 50.3708 74.6 50.2188 74.6C50.0508 74.6 49.8788 74.644 49.7028 74.732C49.5268 74.82 49.3668 74.952 49.2228 75.128C49.0788 75.296 48.9628 75.496 48.8748 75.728C48.7948 75.96 48.7548 76.22 48.7548 76.508V79.388C48.7548 79.564 48.6948 79.712 48.5748 79.832C48.4628 79.944 48.3228 80 48.1548 80ZM57.6018 73.592C57.7778 73.592 57.9218 73.652 58.0338 73.772C58.1458 73.884 58.2018 74.028 58.2018 74.204V79.388C58.2018 79.564 58.1458 79.712 58.0338 79.832C57.9218 79.944 57.7778 80 57.6018 80C57.4338 80 57.2898 79.944 57.1698 79.832C57.0578 79.712 57.0018 79.564 57.0018 79.388V78.524L57.2538 78.56C57.2538 78.704 57.1938 78.864 57.0738 79.04C56.9618 79.216 56.8058 79.388 56.6058 79.556C56.4058 79.716 56.1698 79.852 55.8978 79.964C55.6258 80.068 55.3338 80.12 55.0218 80.12C54.4698 80.12 53.9738 79.98 53.5338 79.7C53.0938 79.412 52.7458 79.02 52.4898 78.524C52.2338 78.028 52.1058 77.464 52.1058 76.832C52.1058 76.184 52.2338 75.616 52.4898 75.128C52.7458 74.632 53.0898 74.244 53.5218 73.964C53.9618 73.684 54.4498 73.544 54.9858 73.544C55.3298 73.544 55.6458 73.6 55.9338 73.712C56.2298 73.824 56.4858 73.968 56.7018 74.144C56.9178 74.32 57.0818 74.508 57.1938 74.708C57.3138 74.9 57.3738 75.084 57.3738 75.26L57.0018 75.296V74.204C57.0018 74.036 57.0578 73.892 57.1698 73.772C57.2898 73.652 57.4338 73.592 57.6018 73.592ZM55.1538 79.016C55.5298 79.016 55.8618 78.92 56.1498 78.728C56.4378 78.536 56.6618 78.276 56.8218 77.948C56.9818 77.612 57.0618 77.24 57.0618 76.832C57.0618 76.416 56.9818 76.044 56.8218 75.716C56.6618 75.388 56.4378 75.128 56.1498 74.936C55.8618 74.744 55.5298 74.648 55.1538 74.648C54.7858 74.648 54.4578 74.744 54.1698 74.936C53.8898 75.128 53.6658 75.388 53.4978 75.716C53.3378 76.044 53.2578 76.416 53.2578 76.832C53.2578 77.24 53.3378 77.612 53.4978 77.948C53.6658 78.276 53.8898 78.536 54.1698 78.728C54.4578 78.92 54.7858 79.016 55.1538 79.016ZM62.679 73.544C63.111 73.544 63.495 73.592 63.831 73.688C64.167 73.776 64.427 73.904 64.611 74.072C64.803 74.232 64.899 74.42 64.899 74.636C64.899 74.772 64.859 74.9 64.779 75.02C64.699 75.132 64.579 75.188 64.419 75.188C64.307 75.188 64.211 75.168 64.131 75.128C64.059 75.088 63.991 75.04 63.927 74.984C63.863 74.928 63.783 74.872 63.687 74.816C63.599 74.768 63.467 74.728 63.291 74.696C63.123 74.664 62.971 74.648 62.835 74.648C62.411 74.648 62.043 74.744 61.731 74.936C61.427 75.128 61.187 75.388 61.011 75.716C60.843 76.044 60.759 76.416 60.759 76.832C60.759 77.248 60.843 77.62 61.011 77.948C61.187 78.276 61.423 78.536 61.719 78.728C62.023 78.92 62.375 79.016 62.775 79.016C63.015 79.016 63.211 79 63.363 78.968C63.515 78.928 63.647 78.88 63.759 78.824C63.879 78.752 63.979 78.68 64.059 78.608C64.147 78.528 64.267 78.488 64.419 78.488C64.595 78.488 64.727 78.544 64.815 78.656C64.911 78.76 64.959 78.892 64.959 79.052C64.959 79.228 64.851 79.4 64.635 79.568C64.427 79.728 64.147 79.86 63.795 79.964C63.443 80.068 63.055 80.12 62.631 80.12C62.007 80.12 61.463 79.976 60.999 79.688C60.543 79.4 60.187 79.008 59.931 78.512C59.683 78.016 59.559 77.456 59.559 76.832C59.559 76.2 59.691 75.64 59.955 75.152C60.219 74.656 60.587 74.264 61.059 73.976C61.531 73.688 62.071 73.544 62.679 73.544ZM66.8016 80C66.6336 80 66.4896 79.944 66.3696 79.832C66.2576 79.712 66.2016 79.564 66.2016 79.388V71.732C66.2016 71.556 66.2576 71.412 66.3696 71.3C66.4896 71.18 66.6336 71.12 66.8016 71.12C66.9776 71.12 67.1216 71.18 67.2336 71.3C67.3456 71.412 67.4016 71.556 67.4016 71.732V79.388C67.4016 79.564 67.3456 79.712 67.2336 79.832C67.1216 79.944 66.9776 80 66.8016 80ZM70.7136 73.664C70.8656 73.664 70.9976 73.728 71.1096 73.856C71.2216 73.984 71.2776 74.112 71.2776 74.24C71.2776 74.4 71.2016 74.548 71.0496 74.684L67.2936 78.044L67.2456 76.664L70.2696 73.856C70.3976 73.728 70.5456 73.664 70.7136 73.664ZM70.8576 79.988C70.6896 79.988 70.5456 79.92 70.4256 79.784L68.0256 77.252L68.9376 76.412L71.2776 78.944C71.4056 79.08 71.4696 79.232 71.4696 79.4C71.4696 79.576 71.3976 79.72 71.2536 79.832C71.1176 79.936 70.9856 79.988 70.8576 79.988ZM73.577 71.6C73.737 71.6 73.877 71.66 73.997 71.78C74.125 71.892 74.189 72.036 74.189 72.212V79.388C74.181 79.564 74.113 79.712 73.985 79.832C73.865 79.944 73.721 80 73.553 80C73.369 80 73.217 79.944 73.097 79.832C72.985 79.712 72.929 79.564 72.929 79.388V72.212C72.929 72.036 72.989 71.892 73.109 71.78C73.229 71.66 73.385 71.6 73.577 71.6ZM78.989 71.6C79.181 71.6 79.333 71.66 79.445 71.78C79.557 71.892 79.613 72.036 79.613 72.212V79.388C79.613 79.564 79.553 79.712 79.433 79.832C79.321 79.944 79.169 80 78.977 80C78.809 80 78.665 79.944 78.545 79.832C78.425 79.712 78.365 79.564 78.365 79.388V72.212C78.365 72.036 78.425 71.892 78.545 71.78C78.673 71.66 78.821 71.6 78.989 71.6ZM73.529 75.176H79.001L78.989 76.328H73.517L73.529 75.176ZM92.8057 73.688C92.9737 73.688 93.1137 73.748 93.2257 73.868C93.3457 73.98 93.4057 74.124 93.4057 74.3V77.456C93.4057 78.288 93.1737 78.94 92.7097 79.412C92.2457 79.876 91.5897 80.108 90.7417 80.108C89.9017 80.108 89.2497 79.876 88.7857 79.412C88.3297 78.94 88.1017 78.288 88.1017 77.456V74.3C88.1017 74.124 88.1577 73.98 88.2697 73.868C88.3817 73.748 88.5257 73.688 88.7017 73.688C88.8697 73.688 89.0097 73.748 89.1217 73.868C89.2417 73.98 89.3017 74.124 89.3017 74.3V77.456C89.3017 77.976 89.4217 78.364 89.6617 78.62C89.9097 78.876 90.2697 79.004 90.7417 79.004C91.2217 79.004 91.5857 78.876 91.8337 78.62C92.0817 78.364 92.2057 77.976 92.2057 77.456V74.3C92.2057 74.124 92.2617 73.98 92.3737 73.868C92.4857 73.748 92.6297 73.688 92.8057 73.688ZM95.6744 80C95.4984 80 95.3544 79.944 95.2424 79.832C95.1304 79.712 95.0744 79.564 95.0744 79.388V74.3C95.0744 74.124 95.1304 73.98 95.2424 73.868C95.3544 73.748 95.4984 73.688 95.6744 73.688C95.8424 73.688 95.9824 73.748 96.0944 73.868C96.2144 73.98 96.2744 74.124 96.2744 74.3V75.644L96.1544 75.128C96.2184 74.904 96.3144 74.696 96.4424 74.504C96.5784 74.312 96.7384 74.144 96.9224 74C97.1064 73.856 97.3104 73.744 97.5344 73.664C97.7664 73.584 98.0064 73.544 98.2544 73.544C98.4624 73.544 98.6424 73.6 98.7944 73.712C98.9464 73.824 99.0224 73.964 99.0224 74.132C99.0224 74.348 98.9664 74.508 98.8544 74.612C98.7424 74.708 98.6184 74.756 98.4824 74.756C98.3624 74.756 98.2464 74.732 98.1344 74.684C98.0224 74.628 97.8904 74.6 97.7384 74.6C97.5704 74.6 97.3984 74.644 97.2224 74.732C97.0464 74.82 96.8864 74.952 96.7424 75.128C96.5984 75.296 96.4824 75.496 96.3944 75.728C96.3144 75.96 96.2744 76.22 96.2744 76.508V79.388C96.2744 79.564 96.2144 79.712 96.0944 79.832C95.9824 79.944 95.8424 80 95.6744 80ZM99.718 79.016C99.646 78.904 99.614 78.776 99.622 78.632C99.63 78.48 99.714 78.352 99.874 78.248C99.986 78.176 100.102 78.148 100.222 78.164C100.35 78.172 100.47 78.232 100.582 78.344C100.806 78.592 101.054 78.788 101.326 78.932C101.606 79.076 101.942 79.148 102.334 79.148C102.494 79.14 102.658 79.116 102.826 79.076C102.994 79.028 103.138 78.948 103.258 78.836C103.378 78.716 103.438 78.544 103.438 78.32C103.438 78.12 103.374 77.96 103.246 77.84C103.118 77.72 102.95 77.624 102.742 77.552C102.534 77.472 102.31 77.4 102.07 77.336C101.814 77.264 101.554 77.184 101.29 77.096C101.034 77.008 100.802 76.896 100.594 76.76C100.386 76.616 100.214 76.432 100.078 76.208C99.95 75.984 99.886 75.708 99.886 75.38C99.886 75.004 99.99 74.68 100.198 74.408C100.414 74.136 100.69 73.924 101.026 73.772C101.37 73.62 101.742 73.544 102.142 73.544C102.374 73.544 102.618 73.576 102.874 73.64C103.13 73.696 103.378 73.788 103.618 73.916C103.858 74.044 104.066 74.212 104.242 74.42C104.322 74.524 104.366 74.648 104.374 74.792C104.39 74.936 104.326 75.064 104.182 75.176C104.086 75.256 103.97 75.292 103.834 75.284C103.698 75.276 103.586 75.232 103.498 75.152C103.346 74.96 103.15 74.812 102.91 74.708C102.67 74.596 102.398 74.54 102.094 74.54C101.942 74.54 101.782 74.564 101.614 74.612C101.454 74.652 101.318 74.728 101.206 74.84C101.094 74.952 101.038 75.116 101.038 75.332C101.038 75.532 101.102 75.692 101.23 75.812C101.366 75.932 101.542 76.032 101.758 76.112C101.974 76.192 102.21 76.264 102.466 76.328C102.714 76.392 102.958 76.468 103.198 76.556C103.446 76.644 103.666 76.76 103.858 76.904C104.058 77.04 104.218 77.22 104.338 77.444C104.466 77.66 104.53 77.936 104.53 78.272C104.53 78.664 104.414 79 104.182 79.28C103.958 79.552 103.67 79.76 103.318 79.904C102.974 80.048 102.61 80.12 102.226 80.12C101.77 80.12 101.314 80.04 100.858 79.88C100.41 79.712 100.03 79.424 99.718 79.016Z" fill="#111313"/>
<path d="M106.276 79.988C106.076 79.988 105.92 79.932 105.808 79.82C105.704 79.708 105.652 79.552 105.652 79.352V79.136C105.652 78.936 105.704 78.78 105.808 78.668C105.92 78.556 106.076 78.5 106.276 78.5H106.408C106.608 78.5 106.76 78.556 106.864 78.668C106.968 78.78 107.02 78.936 107.02 79.136V79.352C107.02 79.552 106.968 79.708 106.864 79.82C106.76 79.932 106.608 79.988 106.408 79.988H106.276Z" fill="#98E5DD"/>
<rect x="75" y="79" width="10" height="1" rx="0.5" fill="white"/>
<rect x="72" y="77" width="10" height="1" rx="0.5" fill="white"/>
<g clip-path="url(#clip0_10_6)">
<path d="M84.1042 71.8333C81.8067 71.8333 79.9375 73.7025 79.9375 76C79.9375 78.2975 81.8067 80.1667 84.1042 80.1667C86.4017 80.1667 88.2708 78.2975 88.2708 76C88.2708 73.7025 86.4017 71.8333 84.1042 71.8333ZM86.5 76C86.5 76.2301 86.3135 76.4167 86.0833 76.4167H83.6875V73.9167C83.6875 73.6866 83.874 73.5 84.1042 73.5C84.3343 73.5 84.5208 73.6866 84.5208 73.9167V75.5833H86.0833C86.3135 75.5833 86.5 75.7699 86.5 76Z" fill="white"/>
</g>
<rect x="75" y="72" width="10" height="1" rx="0.5" fill="white"/>
<rect width="30" height="5" transform="translate(17 24)" fill="#EEB58F"/>
<rect width="30" height="5" transform="translate(17 17)" fill="#98E5DD"/>
<rect width="30" height="5" transform="translate(17 10)" fill="#111313"/>
<defs>
<clipPath id="clip0_10_6">
<rect width="10" height="10" fill="white" transform="translate(79 71)"/>
</clipPath>
</defs>
</svg>
