<svg width="41" height="24" viewBox="0 0 41 24" fill="none" xmlns="http://www.w3.org/2000/svg">
<rect x="7.2" y="19.2" width="24" height="2.4" rx="1.2" fill="#111313"/>
<rect y="14.4" width="24" height="2.4" rx="1.2" fill="#111313"/>
<g clip-path="url(#clip0_14_16)">
<path d="M29.05 2C23.536 2 19.05 6.486 19.05 12C19.05 17.514 23.536 22 29.05 22C34.564 22 39.05 17.514 39.05 12C39.05 6.486 34.564 2 29.05 2ZM34.8 12C34.8 12.5523 34.3523 13 33.8 13H28.05V7C28.05 6.44772 28.4977 6 29.05 6V6C29.6023 6 30.05 6.44772 30.05 7V11H33.8C34.3523 11 34.8 11.4477 34.8 12V12Z" fill="#111313"/>
</g>
<rect x="7.2" y="2.39999" width="24" height="2.4" rx="1.2" fill="#111313"/>
<defs>
<clipPath id="clip0_14_16">
<rect width="24" height="24" fill="white" transform="translate(16.8)"/>
</clipPath>
</defs>
</svg>
