<svg width="68" height="15" viewBox="0 0 68 15" fill="none" xmlns="http://www.w3.org/2000/svg">
<path d="M3.708 12C3.516 12 3.36 11.944 3.24 11.832C3.128 11.712 3.072 11.564 3.072 11.388V4.2H4.356V11.388C4.356 11.564 4.292 11.712 4.164 11.832C4.044 11.944 3.892 12 3.708 12ZM0.984 4.752C0.816 4.752 0.672 4.7 0.552 4.596C0.432 4.484 0.372 4.34 0.372 4.164C0.372 3.996 0.432 3.86 0.552 3.756C0.672 3.652 0.816 3.6 0.984 3.6H6.444C6.612 3.6 6.752 3.656 6.864 3.768C6.984 3.872 7.044 4.008 7.044 4.176C7.044 4.352 6.984 4.492 6.864 4.596C6.752 4.7 6.612 4.752 6.444 4.752H0.984ZM8.15484 12C7.97884 12 7.83484 11.944 7.72284 11.832C7.61084 11.712 7.55484 11.564 7.55484 11.388V6.3C7.55484 6.124 7.61084 5.98 7.72284 5.868C7.83484 5.748 7.97884 5.688 8.15484 5.688C8.32284 5.688 8.46284 5.748 8.57484 5.868C8.69484 5.98 8.75484 6.124 8.75484 6.3V7.644L8.63484 7.128C8.69884 6.904 8.79484 6.696 8.92284 6.504C9.05884 6.312 9.21884 6.144 9.40284 6C9.58684 5.856 9.79084 5.744 10.0148 5.664C10.2468 5.584 10.4868 5.544 10.7348 5.544C10.9428 5.544 11.1228 5.6 11.2748 5.712C11.4268 5.824 11.5028 5.964 11.5028 6.132C11.5028 6.348 11.4468 6.508 11.3348 6.612C11.2228 6.708 11.0988 6.756 10.9628 6.756C10.8428 6.756 10.7268 6.732 10.6148 6.684C10.5028 6.628 10.3708 6.6 10.2188 6.6C10.0508 6.6 9.87884 6.644 9.70284 6.732C9.52684 6.82 9.36684 6.952 9.22284 7.128C9.07884 7.296 8.96284 7.496 8.87484 7.728C8.79484 7.96 8.75484 8.22 8.75484 8.508V11.388C8.75484 11.564 8.69484 11.712 8.57484 11.832C8.46284 11.944 8.32284 12 8.15484 12ZM17.6018 5.592C17.7778 5.592 17.9218 5.652 18.0338 5.772C18.1458 5.884 18.2018 6.028 18.2018 6.204V11.388C18.2018 11.564 18.1458 11.712 18.0338 11.832C17.9218 11.944 17.7778 12 17.6018 12C17.4338 12 17.2898 11.944 17.1698 11.832C17.0578 11.712 17.0018 11.564 17.0018 11.388V10.524L17.2538 10.56C17.2538 10.704 17.1938 10.864 17.0738 11.04C16.9618 11.216 16.8058 11.388 16.6058 11.556C16.4058 11.716 16.1698 11.852 15.8978 11.964C15.6258 12.068 15.3338 12.12 15.0218 12.12C14.4698 12.12 13.9738 11.98 13.5338 11.7C13.0938 11.412 12.7458 11.02 12.4898 10.524C12.2338 10.028 12.1058 9.464 12.1058 8.832C12.1058 8.184 12.2338 7.616 12.4898 7.128C12.7458 6.632 13.0898 6.244 13.5218 5.964C13.9618 5.684 14.4498 5.544 14.9858 5.544C15.3298 5.544 15.6458 5.6 15.9338 5.712C16.2298 5.824 16.4858 5.968 16.7018 6.144C16.9178 6.32 17.0818 6.508 17.1938 6.708C17.3138 6.9 17.3738 7.084 17.3738 7.26L17.0018 7.296V6.204C17.0018 6.036 17.0578 5.892 17.1698 5.772C17.2898 5.652 17.4338 5.592 17.6018 5.592ZM15.1538 11.016C15.5298 11.016 15.8618 10.92 16.1498 10.728C16.4378 10.536 16.6618 10.276 16.8218 9.948C16.9818 9.612 17.0618 9.24 17.0618 8.832C17.0618 8.416 16.9818 8.044 16.8218 7.716C16.6618 7.388 16.4378 7.128 16.1498 6.936C15.8618 6.744 15.5298 6.648 15.1538 6.648C14.7858 6.648 14.4578 6.744 14.1698 6.936C13.8898 7.128 13.6658 7.388 13.4978 7.716C13.3378 8.044 13.2578 8.416 13.2578 8.832C13.2578 9.24 13.3378 9.612 13.4978 9.948C13.6658 10.276 13.8898 10.536 14.1698 10.728C14.4578 10.92 14.7858 11.016 15.1538 11.016ZM22.679 5.544C23.111 5.544 23.495 5.592 23.831 5.688C24.167 5.776 24.427 5.904 24.611 6.072C24.803 6.232 24.899 6.42 24.899 6.636C24.899 6.772 24.859 6.9 24.779 7.02C24.699 7.132 24.579 7.188 24.419 7.188C24.307 7.188 24.211 7.168 24.131 7.128C24.059 7.088 23.991 7.04 23.927 6.984C23.863 6.928 23.783 6.872 23.687 6.816C23.599 6.768 23.467 6.728 23.291 6.696C23.123 6.664 22.971 6.648 22.835 6.648C22.411 6.648 22.043 6.744 21.731 6.936C21.427 7.128 21.187 7.388 21.011 7.716C20.843 8.044 20.759 8.416 20.759 8.832C20.759 9.248 20.843 9.62 21.011 9.948C21.187 10.276 21.423 10.536 21.719 10.728C22.023 10.92 22.375 11.016 22.775 11.016C23.015 11.016 23.211 11 23.363 10.968C23.515 10.928 23.647 10.88 23.759 10.824C23.879 10.752 23.979 10.68 24.059 10.608C24.147 10.528 24.267 10.488 24.419 10.488C24.595 10.488 24.727 10.544 24.815 10.656C24.911 10.76 24.959 10.892 24.959 11.052C24.959 11.228 24.851 11.4 24.635 11.568C24.427 11.728 24.147 11.86 23.795 11.964C23.443 12.068 23.055 12.12 22.631 12.12C22.007 12.12 21.463 11.976 20.999 11.688C20.543 11.4 20.187 11.008 19.931 10.512C19.683 10.016 19.559 9.456 19.559 8.832C19.559 8.2 19.691 7.64 19.955 7.152C20.219 6.656 20.587 6.264 21.059 5.976C21.531 5.688 22.071 5.544 22.679 5.544ZM26.8016 12C26.6336 12 26.4896 11.944 26.3696 11.832C26.2576 11.712 26.2016 11.564 26.2016 11.388V3.732C26.2016 3.556 26.2576 3.412 26.3696 3.3C26.4896 3.18 26.6336 3.12 26.8016 3.12C26.9776 3.12 27.1216 3.18 27.2336 3.3C27.3456 3.412 27.4016 3.556 27.4016 3.732V11.388C27.4016 11.564 27.3456 11.712 27.2336 11.832C27.1216 11.944 26.9776 12 26.8016 12ZM30.7136 5.664C30.8656 5.664 30.9976 5.728 31.1096 5.856C31.2216 5.984 31.2776 6.112 31.2776 6.24C31.2776 6.4 31.2016 6.548 31.0496 6.684L27.2936 10.044L27.2456 8.664L30.2696 5.856C30.3976 5.728 30.5456 5.664 30.7136 5.664ZM30.8576 11.988C30.6896 11.988 30.5456 11.92 30.4256 11.784L28.0256 9.252L28.9376 8.412L31.2776 10.944C31.4056 11.08 31.4696 11.232 31.4696 11.4C31.4696 11.576 31.3976 11.72 31.2536 11.832C31.1176 11.936 30.9856 11.988 30.8576 11.988ZM33.577 3.6C33.737 3.6 33.877 3.66 33.997 3.78C34.125 3.892 34.189 4.036 34.189 4.212V11.388C34.181 11.564 34.113 11.712 33.985 11.832C33.865 11.944 33.721 12 33.553 12C33.369 12 33.217 11.944 33.097 11.832C32.985 11.712 32.929 11.564 32.929 11.388V4.212C32.929 4.036 32.989 3.892 33.109 3.78C33.229 3.66 33.385 3.6 33.577 3.6ZM38.989 3.6C39.181 3.6 39.333 3.66 39.445 3.78C39.557 3.892 39.613 4.036 39.613 4.212V11.388C39.613 11.564 39.553 11.712 39.433 11.832C39.321 11.944 39.169 12 38.977 12C38.809 12 38.665 11.944 38.545 11.832C38.425 11.712 38.365 11.564 38.365 11.388V4.212C38.365 4.036 38.425 3.892 38.545 3.78C38.673 3.66 38.821 3.6 38.989 3.6ZM33.529 7.176H39.001L38.989 8.328H33.517L33.529 7.176ZM52.8057 5.688C52.9737 5.688 53.1137 5.748 53.2257 5.868C53.3457 5.98 53.4057 6.124 53.4057 6.3V9.456C53.4057 10.288 53.1737 10.94 52.7097 11.412C52.2457 11.876 51.5897 12.108 50.7417 12.108C49.9017 12.108 49.2497 11.876 48.7857 11.412C48.3297 10.94 48.1017 10.288 48.1017 9.456V6.3C48.1017 6.124 48.1577 5.98 48.2697 5.868C48.3817 5.748 48.5257 5.688 48.7017 5.688C48.8697 5.688 49.0097 5.748 49.1217 5.868C49.2417 5.98 49.3017 6.124 49.3017 6.3V9.456C49.3017 9.976 49.4217 10.364 49.6617 10.62C49.9097 10.876 50.2697 11.004 50.7417 11.004C51.2217 11.004 51.5857 10.876 51.8337 10.62C52.0817 10.364 52.2057 9.976 52.2057 9.456V6.3C52.2057 6.124 52.2617 5.98 52.3737 5.868C52.4857 5.748 52.6297 5.688 52.8057 5.688ZM55.6744 12C55.4984 12 55.3544 11.944 55.2424 11.832C55.1304 11.712 55.0744 11.564 55.0744 11.388V6.3C55.0744 6.124 55.1304 5.98 55.2424 5.868C55.3544 5.748 55.4984 5.688 55.6744 5.688C55.8424 5.688 55.9824 5.748 56.0944 5.868C56.2144 5.98 56.2744 6.124 56.2744 6.3V7.644L56.1544 7.128C56.2184 6.904 56.3144 6.696 56.4424 6.504C56.5784 6.312 56.7384 6.144 56.9224 6C57.1064 5.856 57.3104 5.744 57.5344 5.664C57.7664 5.584 58.0064 5.544 58.2544 5.544C58.4624 5.544 58.6424 5.6 58.7944 5.712C58.9464 5.824 59.0224 5.964 59.0224 6.132C59.0224 6.348 58.9664 6.508 58.8544 6.612C58.7424 6.708 58.6184 6.756 58.4824 6.756C58.3624 6.756 58.2464 6.732 58.1344 6.684C58.0224 6.628 57.8904 6.6 57.7384 6.6C57.5704 6.6 57.3984 6.644 57.2224 6.732C57.0464 6.82 56.8864 6.952 56.7424 7.128C56.5984 7.296 56.4824 7.496 56.3944 7.728C56.3144 7.96 56.2744 8.22 56.2744 8.508V11.388C56.2744 11.564 56.2144 11.712 56.0944 11.832C55.9824 11.944 55.8424 12 55.6744 12ZM59.718 11.016C59.646 10.904 59.614 10.776 59.622 10.632C59.63 10.48 59.714 10.352 59.874 10.248C59.986 10.176 60.102 10.148 60.222 10.164C60.35 10.172 60.47 10.232 60.582 10.344C60.806 10.592 61.054 10.788 61.326 10.932C61.606 11.076 61.942 11.148 62.334 11.148C62.494 11.14 62.658 11.116 62.826 11.076C62.994 11.028 63.138 10.948 63.258 10.836C63.378 10.716 63.438 10.544 63.438 10.32C63.438 10.12 63.374 9.96 63.246 9.84C63.118 9.72 62.95 9.624 62.742 9.552C62.534 9.472 62.31 9.4 62.07 9.336C61.814 9.264 61.554 9.184 61.29 9.096C61.034 9.008 60.802 8.896 60.594 8.76C60.386 8.616 60.214 8.432 60.078 8.208C59.95 7.984 59.886 7.708 59.886 7.38C59.886 7.004 59.99 6.68 60.198 6.408C60.414 6.136 60.69 5.924 61.026 5.772C61.37 5.62 61.742 5.544 62.142 5.544C62.374 5.544 62.618 5.576 62.874 5.64C63.13 5.696 63.378 5.788 63.618 5.916C63.858 6.044 64.066 6.212 64.242 6.42C64.322 6.524 64.366 6.648 64.374 6.792C64.39 6.936 64.326 7.064 64.182 7.176C64.086 7.256 63.97 7.292 63.834 7.284C63.698 7.276 63.586 7.232 63.498 7.152C63.346 6.96 63.15 6.812 62.91 6.708C62.67 6.596 62.398 6.54 62.094 6.54C61.942 6.54 61.782 6.564 61.614 6.612C61.454 6.652 61.318 6.728 61.206 6.84C61.094 6.952 61.038 7.116 61.038 7.332C61.038 7.532 61.102 7.692 61.23 7.812C61.366 7.932 61.542 8.032 61.758 8.112C61.974 8.192 62.21 8.264 62.466 8.328C62.714 8.392 62.958 8.468 63.198 8.556C63.446 8.644 63.666 8.76 63.858 8.904C64.058 9.04 64.218 9.22 64.338 9.444C64.466 9.66 64.53 9.936 64.53 10.272C64.53 10.664 64.414 11 64.182 11.28C63.958 11.552 63.67 11.76 63.318 11.904C62.974 12.048 62.61 12.12 62.226 12.12C61.77 12.12 61.314 12.04 60.858 11.88C60.41 11.712 60.03 11.424 59.718 11.016Z" fill="#111313"/>
<path d="M66.2765 11.988C66.0765 11.988 65.9205 11.932 65.8085 11.82C65.7045 11.708 65.6525 11.552 65.6525 11.352V11.136C65.6525 10.936 65.7045 10.78 65.8085 10.668C65.9205 10.556 66.0765 10.5 66.2765 10.5H66.4085C66.6085 10.5 66.7605 10.556 66.8645 10.668C66.9685 10.78 67.0205 10.936 67.0205 11.136V11.352C67.0205 11.552 66.9685 11.708 66.8645 11.82C66.7605 11.932 66.6085 11.988 66.4085 11.988H66.2765Z" fill="#EEB58F"/>
<rect x="35" y="11" width="10" height="1" rx="0.5" fill="#98E5DD"/>
<rect x="32" y="9" width="10" height="1" rx="0.5" fill="#98E5DD"/>
<g clip-path="url(#clip0_10_3)">
<path d="M44.1042 3.83334C41.8067 3.83334 39.9375 5.70251 39.9375 8.00001C39.9375 10.2975 41.8067 12.1667 44.1042 12.1667C46.4017 12.1667 48.2708 10.2975 48.2708 8.00001C48.2708 5.70251 46.4017 3.83334 44.1042 3.83334ZM46.5 8.00001C46.5 8.23013 46.3135 8.41668 46.0833 8.41668H43.6875V5.91668C43.6875 5.68656 43.874 5.50001 44.1042 5.50001C44.3343 5.50001 44.5208 5.68656 44.5208 5.91668V7.58334H46.0833C46.3135 7.58334 46.5 7.76989 46.5 8.00001Z" fill="#98E5DD"/>
</g>
<rect x="35" y="4" width="10" height="1" rx="0.5" fill="#98E5DD"/>
<defs>
<clipPath id="clip0_10_3">
<rect width="10" height="10" fill="white" transform="translate(39 3)"/>
</clipPath>
</defs>
</svg>
